<svg aria-hidden="true" style="position:absolute;width:0;height:0;overflow:hidden" xmlns="http://www.w3.org/2000/svg">
  <defs>
    <symbol id="select" viewBox="0 0 32 32">
      <path d="M28.779 6.39c-.277.008-.54.124-.733.323L11.733 23.026 5.02 16.313a1.065 1.065 0 1 0-1.508 1.507l7.467 7.467a1.066 1.066 0 0 0 1.508 0L29.554 8.22a1.072 1.072 0 0 0 .239-1.18 1.066 1.066 0 0 0-1.013-.65z"/>
    </symbol>
    <symbol id="heart-like" viewBox="0 0 32 32">
      <path stroke-linejoin="round" stroke-linecap="round" stroke-width="2" d="M9.331 4C5.65 4 2.664 6.955 2.664 10.6c0 2.943 1.167 9.927 12.651 16.987a1.316 1.316 0 0 0 1.366 0c11.484-7.06 12.651-14.044 12.651-16.987 0-3.645-2.985-6.6-6.667-6.6s-6.667 4-6.667 4-2.985-4-6.667-4z"/>
    </symbol>
    <symbol id="up" viewBox="0 0 32 32">
      <path d="m4.576 22.4-3.509-3.247L16 5.334l14.933 13.819-3.509 3.247L16 11.851 4.576 22.4z"/>
    </symbol>
    <symbol id="down" viewBox="0 0 32 32">
      <path d="m4.576 9.6-3.509 3.248L16 26.667l14.933-13.819L27.424 9.6 16 20.149 4.576 9.6z"/>
    </symbol>
    <symbol id="left-arrow" viewBox="0 0 32 32">
    <path d="M24 28.226l-1.576 1.774-14.424-14 14.424-14 1.576 1.774-12.596 12.226z"></path>
    </symbol>
    <symbol id="right-arrow" viewBox="0 0 32 32">
    <path d="M8 3.774l1.576-1.774 14.424 14-14.424 14-1.576-1.774 12.596-12.226z"></path>
    </symbol>
    <symbol id="down-arrow" viewBox="0 0 32 32">
    <path d="M28.226 8l1.774 1.576-14 14.424-14-14.424 1.774-1.576 12.226 12.596z"></path>
    </symbol>
    <symbol id="up-arrow" viewBox="0 0 32 32">
    <path d="M28.226 24l1.774-1.576-14-14.424-14 14.424 1.774 1.576 12.226-12.596z"></path>
    </symbol>
    <symbol id="calendar" viewBox="0 0 32 32">
      <path d="M22.668 4h5.333a1.335 1.335 0 0 1 1.334 1.334v21.333a1.335 1.335 0 0 1-1.334 1.334h-24a1.335 1.335 0 0 1-1.334-1.334V5.334A1.335 1.335 0 0 1 4.001 4h5.333V1.333h2.667V4h8V1.333h2.667V4zm4 10.667H5.335v10.667h21.333V14.667zm-6.667-8h-8v2.667H9.334V6.667h-4V12h21.333V6.667h-4v2.667H20V6.667zm-12 10.666h2.667V20H8.001v-2.667zm6.667 0h2.667V20h-2.667v-2.667zm6.666 0h2.667V20h-2.667v-2.667z"/>
    </symbol>
    <symbol id="touch" viewBox="0 0 32 32">
      <path d="M21.758 11.984c.307-.1.613-.136.919-.108s.591.109.855.243a2.32 2.32 0 0 1 1.153 1.355l1.438 4.417a6.894 6.894 0 0 1-.42 5.314c-.411.795-.959 1.495-1.645 2.1s-1.487 1.061-2.404 1.368c-1.104.359-2.201.483-3.289.371s-2.149-.428-3.184-.948l-7.196-3.662a2.434 2.434 0 0 1-1.195-1.405c-.105-.322-.141-.641-.108-.957s.118-.615.255-.897.326-.522.567-.719c.241-.197.52-.356.837-.476a2.328 2.328 0 0 1 1.843.151l1.628.819-1.258-3.865c-.522-.068-1.016-.204-1.481-.408s-.891-.469-1.276-.793c-.385-.324-.727-.696-1.025-1.117s-.524-.881-.679-1.382c-.232-.713-.315-1.424-.249-2.133s.256-1.377.569-2.004c.313-.628.738-1.173 1.274-1.636s1.164-.815 1.882-1.058c.713-.232 1.424-.315 2.133-.249s1.377.256 2.004.569 1.173.738 1.636 1.274A5.581 5.581 0 0 1 16.4 8.03a5.408 5.408 0 0 1-.409 4.293c.291-.018.57.018.837.109s.52.229.758.415a2.347 2.347 0 0 1 2.144-.723c.387.069.734.236 1.041.501.283-.304.612-.517.988-.639zm-14.192-1.08c.187.575.496 1.081.926 1.518s.932.753 1.504.948l-.958-2.945c-.1-.307-.136-.613-.108-.919s.109-.591.243-.855a2.32 2.32 0 0 1 1.355-1.153c.307-.1.613-.136.919-.108s.591.109.855.243a2.32 2.32 0 0 1 1.153 1.355l.958 2.945c.348-.495.567-1.045.658-1.652s.043-1.197-.144-1.772c-.165-.506-.415-.95-.752-1.333s-.727-.684-1.172-.903c-.445-.22-.922-.357-1.432-.412s-1.018 0-1.524.165-.95.415-1.333.752a3.924 3.924 0 0 0-1.327 2.608 3.744 3.744 0 0 0 .177 1.52zm15.647 3.049c-.065-.199-.194-.348-.387-.446s-.389-.115-.589-.05c-.261.085-.417.216-.469.395s-.055.378-.008.601c.047.222.12.461.221.717s.176.49.228.702c.052.212.051.416-.004.612s-.215.329-.481.398c-.284.092-.504.066-.661-.077s-.293-.354-.409-.63c-.115-.276-.204-.574-.265-.893s-.15-.617-.265-.893c-.115-.276-.246-.484-.393-.622s-.372-.167-.676-.085c-.261.085-.417.216-.47.395s-.055.378-.008.6c.047.222.12.461.221.717s.176.49.228.702c.052.212.051.416-.004.612s-.215.329-.481.398c-.284.092-.504.067-.661-.077s-.293-.354-.409-.63c-.115-.276-.204-.574-.265-.893s-.15-.617-.265-.893c-.115-.276-.247-.484-.393-.623s-.372-.167-.677-.085c-.261.085-.417.216-.469.394s-.055.378-.008.601c.047.222.12.461.221.717s.176.49.228.702.051.416-.004.612c-.055.196-.215.329-.481.398-.199.065-.396.048-.589-.05s-.322-.247-.387-.447L11.986 9.47c-.065-.199-.194-.348-.387-.447s-.389-.115-.589-.05c-.199.065-.348.194-.446.387s-.115.389-.05.589l2.946 9.053a1.3 1.3 0 0 1-.069 1.002c-.075.16-.181.292-.316.396s-.286.191-.449.261c-.169.055-.34.077-.513.065s-.345-.057-.515-.137L9.479 19.51c-.213-.109-.431-.127-.654-.054s-.388.215-.497.429a.883.883 0 0 0-.062.669.826.826 0 0 0 .429.497l7.2 3.674c.854.434 1.719.696 2.596.783s1.773-.013 2.688-.302c.713-.232 1.337-.583 1.87-1.054s.958-1.016 1.274-1.636c.316-.62.506-1.284.573-1.993s-.014-1.424-.241-2.148l-1.438-4.417z"/>
    </symbol>
    <symbol id="search" viewBox="0 0 32 32">
      <path d="M13.464 23.726c2.277 0 4.489-.763 6.283-2.165l5.64 5.64 1.814-1.814-5.64-5.64a10.202 10.202 0 0 0 2.167-6.284c0-5.659-4.604-10.263-10.264-10.263S3.2 7.804 3.2 13.463s4.604 10.263 10.264 10.263zm0-17.96c4.245 0 7.698 3.452 7.698 7.697s-3.452 7.697-7.698 7.697c-4.245 0-7.698-3.452-7.698-7.697s3.452-7.697 7.698-7.697z"/>
    </symbol>
<symbol id="menu-open" viewBox="0 0 32 32">
<path stroke-linejoin="round" stroke-linecap="round" stroke-miterlimit="4" stroke-width="2.6667" d="M4 16h24M4 8h24M4 24h24"></path>
</symbol>
    <symbol id="close" viewBox="0 0 32 32">
      <path stroke-linejoin="round" stroke-linecap="round" stroke-width="2.667" d="M24 8 8 24M8 8l16 16"/>
    </symbol>
    <symbol id="menu-close" viewBox="0 0 32 32">
<path d="M23.734 10.304l-1.504-1.504-5.963 5.962-5.962-5.962-1.504 1.504 5.962 5.962-5.962 5.963 1.504 1.504 5.962-5.963 5.963 5.963 1.504-1.504-5.963-5.963 5.963-5.962z"></path>
</symbol>
    <symbol id="moon" viewBox="0 0 32 32">
      <path stroke-linejoin="round" stroke-linecap="round" stroke-width="2.286" d="M28 17.053a11.994 11.994 0 0 1-7.873 10.182A12.003 12.003 0 0 1 4.338 18.56 12.002 12.002 0 0 1 14.946 3.999 9.335 9.335 0 0 0 28 17.053z"/>
    </symbol>
    <symbol id="sun" viewBox="0 0 32 32">
      <path stroke-linejoin="round" stroke-linecap="round" stroke-width="2.286" d="M15.999 1.778v2.586m0 23.272v2.586M5.94 5.941l1.836 1.836m16.446 16.446 1.836 1.836M1.777 16h2.586m23.272 0h2.586M5.94 26.059l1.836-1.836M24.222 7.777l1.836-1.836M22.464 16a6.465 6.465 0 1 1-12.93 0 6.465 6.465 0 0 1 12.93 0z"/>
    </symbol>
    <symbol id="home" viewBox="0 0 32 32">
      <path stroke-linejoin="miter" stroke-linecap="butt" stroke-miterlimit="4" stroke-width="1" d="M31.5 16c0 8.56-6.94 15.5-15.5 15.5s-15.5-6.94-15.5-15.5c0-8.56 6.94-15.5 15.5-15.5s15.5 6.94 15.5 15.5z"></path>
      <path stroke-linejoin="round" stroke-linecap="round" stroke-miterlimit="4" stroke-width="1" d="M9.25 13.75l6.75-5.25 6.75 5.25v8.25c0 0.398-0.158 0.779-0.439 1.061s-0.663 0.439-1.061 0.439h-10.5c-0.398 0-0.779-0.158-1.061-0.439s-0.439-0.663-0.439-1.061v-8.25z"></path>
      <path stroke-linejoin="round" stroke-linecap="round" stroke-miterlimit="4" stroke-width="1" d="M13.75 23.5v-7.5h4.5v7.5"></path>
      </symbol>
      <symbol id="fav" viewBox="0 0 32 32">
        <path d="M32 16c0 8.837-7.163 16-16 16s-16-7.163-16-16c0-8.837 7.163-16 16-16s16 7.163 16 16z"></path>
        <path stroke-linejoin="round" stroke-linecap="round" stroke-miterlimit="4" stroke-width="1" d="M22.631 10.457c-0.383-0.383-0.838-0.687-1.338-0.895s-1.037-0.314-1.579-0.314c-0.542 0-1.078 0.107-1.579 0.314s-0.956 0.511-1.338 0.895l-0.795 0.795-0.795-0.795c-0.774-0.774-1.823-1.208-2.918-1.208s-2.144 0.435-2.918 1.208c-0.774 0.774-1.208 1.823-1.208 2.918s0.435 2.144 1.208 2.918l6.63 6.63 6.63-6.63c0.383-0.383 0.687-0.838 0.895-1.338s0.314-1.037 0.314-1.579c0-0.542-0.107-1.078-0.314-1.579s-0.512-0.955-0.895-1.338v0z"></path>
        </symbol>
      <symbol id="read" viewBox="0 0 32 32">
        <path d="M32 16c0 8.837-7.163 16-16 16s-16-7.163-16-16c0-8.837 7.163-16 16-16s16 7.163 16 16z"></path>
        <path stroke-linejoin="round" stroke-linecap="round" stroke-miterlimit="4" stroke-width="1" d="M8.5 9.25h4.5c0.796 0 1.559 0.316 2.121 0.879s0.879 1.326 0.879 2.121v10.5c0-0.597-0.237-1.169-0.659-1.591s-0.994-0.659-1.591-0.659h-5.25v-11.25z"></path>
        <path stroke-linejoin="round" stroke-linecap="round" stroke-miterlimit="4" stroke-width="1" d="M23.5 9.25h-4.5c-0.796 0-1.559 0.316-2.121 0.879s-0.879 1.326-0.879 2.121v10.5c0-0.597 0.237-1.169 0.659-1.591s0.994-0.659 1.591-0.659h5.25v-11.25z"></path>
      </symbol>      
        </defs>
</svg>
